<?xml version="1.0" standalone="no"?>
<!DOCTYPE svg PUBLIC "-//W3C//DTD SVG 20010904//EN"
 "http://www.w3.org/TR/2001/REC-SVG-20010904/DTD/svg10.dtd">
<svg version="1.0" xmlns="http://www.w3.org/2000/svg"
 width="16.000000pt" height="16.000000pt" viewBox="0 0 16.000000 16.000000"
 preserveAspectRatio="xMidYMid meet">
<metadata>
Created by potrace 1.11, written by Peter Selinger 2001-2013
</metadata>
<g transform="translate(0.000000,16.000000) scale(0.002222,-0.002222)"
fill="#000000" stroke="none">
<path d="M3395 7111 c-93 -47 -199 -99 -235 -115 -36 -16 -99 -45 -140 -64
-142 -65 -253 -112 -267 -112 -7 0 -13 -4 -13 -10 0 -5 -3 -9 -7 -9 -5 1 -11
0 -15 -1 -5 -1 -11 -3 -15 -5 -5 -1 -28 -11 -53 -22 -25 -11 -85 -35 -135 -52
-49 -18 -99 -37 -110 -42 -86 -38 -554 -175 -664 -194 -19 -3 -38 -8 -43 -11
-5 -3 -21 -7 -36 -10 -15 -3 -58 -11 -97 -19 -104 -21 -112 -22 -340 -61 -209
-35 -224 -38 -300 -49 -22 -3 -65 -10 -95 -15 -30 -5 -68 -11 -85 -14 -29 -4
-114 -19 -125 -21 -3 0 -16 -5 -29 -9 l-24 -8 7 -272 c4 -149 9 -305 11 -346
2 -41 6 -131 10 -200 12 -268 15 -328 20 -420 3 -52 8 -135 10 -185 3 -49 8
-119 11 -155 3 -36 7 -95 9 -132 3 -37 7 -84 9 -105 3 -21 7 -74 11 -118 7
-83 19 -169 35 -245 5 -25 12 -56 14 -70 99 -561 350 -1305 579 -1724 104
-190 297 -502 400 -646 81 -114 233 -317 270 -360 106 -127 401 -430 487 -500
51 -42 76 -63 115 -98 44 -40 374 -313 420 -348 35 -27 270 -176 375 -237 61
-36 184 -94 213 -101 51 -12 316 123 572 292 77 51 441 346 506 411 9 9 44 39
78 66 131 107 497 493 586 619 11 16 29 40 41 55 92 115 284 399 383 566 39
66 76 127 81 135 78 126 183 332 245 480 15 36 33 79 40 95 81 180 249 692
280 856 2 12 13 56 24 98 11 42 22 87 25 101 2 14 12 59 21 100 23 104 24 108
35 170 6 30 12 66 15 79 2 12 7 42 9 65 3 22 8 52 10 66 4 24 11 87 21 180 2
25 7 86 10 135 4 50 9 115 11 145 2 30 6 98 9 150 2 52 7 138 10 190 17 287
31 634 40 986 5 187 4 231 -7 231 -14 1 -76 11 -112 19 -54 12 -226 43 -266
48 -25 3 -55 8 -66 10 -12 3 -71 12 -130 21 -60 10 -118 19 -129 22 -24 5
-117 21 -165 29 -19 3 -87 17 -150 30 -63 14 -126 27 -140 30 -14 2 -99 25
-190 49 -446 119 -917 306 -1499 594 -94 46 -154 71 -175 70 -17 -1 -105 -39
-201 -88z"/>
</g>
</svg>
